<svg xmlns="http://www.w3.org/2000/svg" xmlns:xlink="http://www.w3.org/1999/xlink" x="0px" y="0px" width="80px" height="16px" viewBox="0 0 80 16">


	<g  transform="translate(64, 0)"><path fill="#ffffff" d="M13,11H3c-0.6,0-1-0.4-1-1V2H0V0h3c0.6,0,1,0.4,1,1v1h11c0.9,0,1,1,1,1.3l-2,7C13.8,10.7,13.4,11,13,11z
	 M4,9h8.2l1.4-5H4V9z"/>
<circle data-color="color-2" fill="#ffffff" cx="3" cy="14" r="2"/>
<circle data-color="color-2" fill="#ffffff" cx="13" cy="14" r="2"/></g>


<g  transform="translate(48, 0)">
<path fill="#ffffff" d="M15,1H1C0.4,1,0,1.4,0,2v12c0,0.6,0.4,1,1,1h14c0.6,0,1-0.4,1-1V2C16,1.4,15.6,1,15,1z M14,13H2V6.7l5.5,3.1
	C7.7,10,7.8,10,8,10s0.3,0,0.5-0.1L14,6.7V13z M14,4.4L8,7.8L2,4.4V3h12V4.4z"/>
</g>

 <g  transform="translate(32, 0)">
<path fill="#ffffff" d="M6,0H1C0.4,0,0,0.4,0,1v5c0,0.6,0.4,1,1,1h5c0.6,0,1-0.4,1-1V1C7,0.4,6.6,0,6,0z M5,5H2V2h3V5z"/>
<path fill="#ffffff" d="M15,0h-5C9.4,0,9,0.4,9,1v5c0,0.6,0.4,1,1,1h5c0.6,0,1-0.4,1-1V1C16,0.4,15.6,0,15,0z M14,5h-3V2h3V5z"/>
<path fill="#ffffff" d="M6,9H1c-0.6,0-1,0.4-1,1v5c0,0.6,0.4,1,1,1h5c0.6,0,1-0.4,1-1v-5C7,9.4,6.6,9,6,9z M5,14H2v-3h3V14z"/>
<path fill="#ffffff" d="M15,9h-5c-0.6,0-1,0.4-1,1v5c0,0.6,0.4,1,1,1h5c0.6,0,1-0.4,1-1v-5C16,9.4,15.6,9,15,9z M14,14h-3v-3h3V14z"/>
</g> 

</svg>